<?xml version="1.0" encoding="UTF-8" standalone="no"?>
<!-- Created with Inkscape (http://www.inkscape.org/) -->

<svg
   width="60.258999mm"
   height="25.011793mm"
   viewBox="0 0 60.258997 25.011794"
   version="1.1"
   id="svg5"
   inkscape:version="1.1.1 (c3084ef, 2021-09-22)"
   sodipodi:docname="dessin.svg"
   xmlns:inkscape="http://www.inkscape.org/namespaces/inkscape"
   xmlns:sodipodi="http://sodipodi.sourceforge.net/DTD/sodipodi-0.dtd"
   xmlns="http://www.w3.org/2000/svg"
   xmlns:svg="http://www.w3.org/2000/svg">
  <sodipodi:namedview
     id="namedview7"
     pagecolor="#ffffff"
     bordercolor="#000000"
     borderopacity="0.25"
     inkscape:showpageshadow="2"
     inkscape:pageopacity="0.0"
     inkscape:pagecheckerboard="0"
     inkscape:deskcolor="#d1d1d1"
     inkscape:document-units="mm"
     showgrid="false"
     inkscape:zoom="5.4226755"
     inkscape:cx="126.96684"
     inkscape:cy="57.075146"
     inkscape:window-width="1440"
     inkscape:window-height="797"
     inkscape:window-x="0"
     inkscape:window-y="25"
     inkscape:window-maximized="1"
     inkscape:current-layer="layer1"
     inkscape:pageshadow="2"
     width="57.259mm" />
  <defs
     id="defs2">
    <clipPath
       id="clipPath9063">
      <path
         clip-rule="nonzero"
         d="M 0,0 H 5.257813 V 4.289063 H 0 Z m 0,0"
         id="path119" />
    </clipPath>
    <clipPath
       id="clipPath332">
      <path
         clip-rule="nonzero"
         d="M 0,0 H 5 V 4.289063 H 0 Z m 0,0"
         id="path5736" />
    </clipPath>
    <clipPath
       id="clipPath7433">
      <path
         clip-rule="nonzero"
         d="M 0,0 H 5 V 6.226563 H 0 Z m 0,0"
         id="path1876" />
    </clipPath>
    <clipPath
       id="clipPath997">
      <path
         clip-rule="nonzero"
         d="M 0,0 H 4.980469 V 9.964844 H 0 Z m 0,0"
         id="path9054" />
    </clipPath>
    <clipPath
       id="clipPath9761">
      <path
         clip-rule="nonzero"
         d="M 5,3 H 9 V 8.414063 H 5 Z m 0,0"
         id="path8555" />
    </clipPath>
    <clipPath
       id="clipPath7548">
      <path
         clip-rule="nonzero"
         d="m 26,3 h 4 v 5.414063 h -4 z m 0,0"
         id="path8283" />
    </clipPath>
    <clipPath
       id="clipPath6525">
      <path
         clip-rule="nonzero"
         d="M 5,3 H 8 V 8.414063 H 5 Z m 0,0"
         id="path7490" />
    </clipPath>
  </defs>
  <g
     inkscape:label="Calque 1"
     inkscape:groupmode="layer"
     id="layer1"
     transform="translate(-34.320533,-152.84943)">
    <path
       style="fill:none;stroke:#000000;stroke-width:0.265;stroke-dasharray:none;stroke-opacity:1"
       id="path111"
       transform="rotate(-179.9403)"
       sodipodi:type="arc"
       sodipodi:cx="-55.553921"
       sodipodi:cy="-172.37978"
       sodipodi:rx="20.921118"
       sodipodi:ry="19.455307"
       sodipodi:start="0"
       sodipodi:end="3.1415927"
       sodipodi:arc-type="slice"
       d="m -34.632803,-172.37978 a 20.921118,19.455307 0 0 1 -10.460559,16.84879 20.921118,19.455307 0 0 1 -20.921118,0 20.921118,19.455307 0 0 1 -10.460559,-16.84879 h 20.921118 z" />
    <path
       style="fill:none;stroke:#000000;stroke-width:0.27217;stroke-dasharray:none;stroke-opacity:1"
       id="path111-1"
       transform="matrix(-0.9999987,0.00161007,-8.5169716e-4,-0.99999964,0,0)"
       sodipodi:type="arc"
       sodipodi:cx="-56.535572"
       sodipodi:cy="-172.55508"
       sodipodi:rx="11.366617"
       sodipodi:ry="11.246194"
       sodipodi:start="0"
       sodipodi:end="3.1415927"
       sodipodi:arc-type="slice"
       d="m -45.168955,-172.55508 a 11.366617,11.246194 0 0 1 -5.683309,9.73949 11.366617,11.246194 0 0 1 -11.366617,0 11.366617,11.246194 0 0 1 -5.683308,-9.73949 h 11.366617 z" />
    <path
       style="fill:none;stroke:#000000;stroke-width:0.267996;stroke-miterlimit:4;stroke-dasharray:none;stroke-opacity:1"
       d="m 43.62934,156.29203 c 20.153588,6.13001 32.101316,10.81877 48.151951,16.22814"
       id="path984"
       sodipodi:nodetypes="cc" />
    <path
       style="fill:none;stroke:#000000;stroke-width:0.266322;stroke-miterlimit:4;stroke-dasharray:none;stroke-opacity:1"
       d="m 37.074823,172.40227 54.84503,0.1993"
       id="path984-1"
       sodipodi:nodetypes="cc" />
    <ellipse
       style="fill:#000000;fill-opacity:1;stroke:#000000;stroke-width:0.264999;stroke-dasharray:none;stroke-opacity:1"
       id="path1082"
       cx="179.2831"
       cy="-25.48278"
       rx="0.39976659"
       ry="0.46639434"
       transform="rotate(79.996977)" />
    <path
       style="fill:#000000;fill-opacity:1;stroke:#000000;stroke-width:0.264999;stroke-dasharray:none;stroke-opacity:1"
       d="M 56.329524,171.91154 59.60006,161.63437"
       id="path1106"
       sodipodi:nodetypes="cc" />
    <path
       style="fill:#000000;fill-opacity:1;stroke:#000000;stroke-width:0.264999;stroke-dasharray:none;stroke-opacity:1"
       d="m 75.516674,166.98479 -19.349282,5.15832"
       id="path1108"
       sodipodi:nodetypes="cc" />
    <path
       style="fill:none;fill-opacity:1;stroke:#000000;stroke-width:0.264999;stroke-dasharray:none;stroke-dashoffset:0;stroke-opacity:1"
       d="M 56.341097,171.97716 43.937535,156.50664"
       id="path1110"
       sodipodi:nodetypes="cc" />
    <path
       style="fill:none;fill-opacity:1;stroke:#000000;stroke-width:0.264999;stroke-dasharray:0.264999, 0.794997;stroke-dashoffset:0;stroke-opacity:1"
       d="m 43.77158,156.33294 0.08779,16.20928"
       id="path1112"
       sodipodi:nodetypes="cc" />
    <path
       style="fill:none;fill-opacity:1;stroke:#000000;stroke-width:0.264999;stroke-dasharray:0.264999, 0.794997;stroke-dashoffset:0;stroke-opacity:1"
       d="m 75.30825,166.9539 0.03865,6.11749"
       id="path1112-0"
       sodipodi:nodetypes="cc" />
    <path
       style="fill:none;fill-opacity:1;stroke:#ff0000;stroke-width:0.263877;stroke-dasharray:none;stroke-dashoffset:0;stroke-opacity:1"
       d="m 75.439487,172.56758 -18.859473,-0.0152"
       id="path1188"
       sodipodi:nodetypes="cc" />
    <path
       style="fill:none;fill-opacity:1;stroke:#008b00;stroke-width:0.264999;stroke-dasharray:none;stroke-dashoffset:0;stroke-opacity:1"
       d="M 56.424051,172.36383 43.85937,172.54222"
       id="path1188-4"
       sodipodi:nodetypes="cc" />
    <g
       inkscape:label=""
       transform="rotate(-0.90770568,10442.861,-3607.0399)"
       id="g5007">
      <g
         fill="#000000"
         fill-opacity="1"
         id="g12"
         transform="matrix(0.352778,0,0,0.352778,-0.104731,0.0413632)">
        <g
           id="use10"
           transform="translate(0,4.289)">
          <path
             d="M 3.328125,-3.015625 C 3.390625,-3.265625 3.625,-4.1875 4.3125,-4.1875 c 0.046875,0 0.296875,0 0.5,0.125 C 4.53125,-4 4.34375,-3.765625 4.34375,-3.515625 c 0,0.15625 0.109375,0.34375 0.375,0.34375 0.21875,0 0.53125,-0.171875 0.53125,-0.578125 0,-0.515625 -0.578125,-0.65625 -0.921875,-0.65625 -0.578125,0 -0.921875,0.53125 -1.046875,0.75 -0.25,-0.65625 -0.78125,-0.75 -1.078125,-0.75 -1.03125,0 -1.609375,1.28125 -1.609375,1.53125 0,0.109375 0.109375,0.109375 0.125,0.109375 0.078125,0 0.109375,-0.03125 0.125,-0.109375 0.34375,-1.0625 1,-1.3125 1.34375,-1.3125 0.1875,0 0.53125,0.09375 0.53125,0.671875 0,0.3125 -0.171875,0.96875 -0.53125,2.375 -0.15625,0.609375 -0.515625,1.03125 -0.953125,1.03125 -0.0625,0 -0.28125,0 -0.5,-0.125 0.25,-0.0625 0.46875,-0.265625 0.46875,-0.546875 0,-0.265625 -0.21875,-0.34375 -0.359375,-0.34375 -0.3125,0 -0.546875,0.25 -0.546875,0.578125 0,0.453125 0.484375,0.65625 0.921875,0.65625 0.671875,0 1.03125,-0.703125 1.046875,-0.75 0.125,0.359375 0.484375,0.75 1.078125,0.75 1.03125,0 1.59375,-1.28125 1.59375,-1.53125 0,-0.109375 -0.078125,-0.109375 -0.109375,-0.109375 -0.09375,0 -0.109375,0.046875 -0.140625,0.109375 -0.328125,1.078125 -1,1.3125 -1.3125,1.3125 -0.390625,0 -0.546875,-0.3125 -0.546875,-0.65625 0,-0.21875 0.046875,-0.4375 0.15625,-0.875 z m 0,0"
             id="path18" />
        </g>
      </g>
    </g>
    <g
       inkscape:label=""
       transform="rotate(-0.90770568,10679.558,-4375.703)"
       id="g5791">
      <g
         clip-path="url(#clipPath332)"
         id="g17"
         transform="matrix(0.352778,0,0,0.352778,-0.148828,0.0413632)">
        <g
           fill="#000000"
           fill-opacity="1"
           id="g15">
          <g
             id="use13"
             transform="translate(0,4.289)">
            <path
               d="m 1.328125,-0.828125 c 0.53125,-0.578125 0.828125,-0.828125 1.1875,-1.140625 0,0 0.609375,-0.53125 0.96875,-0.890625 C 4.4375,-3.78125 4.65625,-4.265625 4.65625,-4.3125 c 0,-0.09375 -0.09375,-0.09375 -0.109375,-0.09375 -0.078125,0 -0.09375,0.015625 -0.15625,0.109375 -0.296875,0.484375 -0.5,0.640625 -0.734375,0.640625 -0.25,0 -0.359375,-0.15625 -0.515625,-0.328125 -0.1875,-0.21875 -0.359375,-0.421875 -0.6875,-0.421875 -0.75,0 -1.203125,0.921875 -1.203125,1.140625 0,0.046875 0.03125,0.109375 0.109375,0.109375 0.09375,0 0.109375,-0.046875 0.140625,-0.109375 0.1875,-0.46875 0.765625,-0.46875 0.84375,-0.46875 0.203125,0 0.390625,0.0625 0.625,0.140625 0.40625,0.15625 0.515625,0.15625 0.765625,0.15625 -0.359375,0.421875 -1.1875,1.140625 -1.375,1.296875 l -0.90625,0.84375 C 0.78125,-0.625 0.421875,-0.0625 0.421875,0.015625 c 0,0.09375 0.109375,0.09375 0.125,0.09375 0.078125,0 0.09375,-0.015625 0.15625,-0.125 0.234375,-0.359375 0.53125,-0.625 0.859375,-0.625 0.21875,0 0.328125,0.09375 0.578125,0.375 0.15625,0.21875 0.34375,0.375 0.625,0.375 1,0 1.578125,-1.265625 1.578125,-1.53125 0,-0.046875 -0.046875,-0.109375 -0.125,-0.109375 -0.09375,0 -0.109375,0.0625 -0.140625,0.140625 C 3.84375,-0.75 3.203125,-0.5625 2.875,-0.5625 c -0.1875,0 -0.375,-0.0625 -0.578125,-0.125 -0.34375,-0.125 -0.5,-0.171875 -0.703125,-0.171875 -0.015625,0 -0.171875,0 -0.265625,0.03125 z m 0,0"
               id="path23" />
          </g>
        </g>
      </g>
    </g>
    <g
       inkscape:label=""
       transform="rotate(-0.90770568,11121.314,-4456.8093)"
       id="g6596">
      <g
         clip-path="url(#clipPath7433)"
         id="g6594"
         transform="matrix(0.352778,0,0,0.352778,-0.104731,0.0410104)">
        <g
           fill="#000000"
           fill-opacity="1"
           id="g6592">
          <g
             id="g6590"
             transform="translate(0,4.29)">
            <path
               d="m 4.84375,-3.796875 c 0.046875,-0.140625 0.046875,-0.15625 0.046875,-0.234375 0,-0.171875 -0.140625,-0.265625 -0.296875,-0.265625 -0.09375,0 -0.25,0.0625 -0.34375,0.203125 -0.015625,0.0625 -0.109375,0.359375 -0.140625,0.546875 -0.078125,0.25 -0.140625,0.53125 -0.203125,0.796875 l -0.453125,1.796875 c -0.03125,0.140625 -0.46875,0.84375 -1.125,0.84375 -0.5,0 -0.609375,-0.4375 -0.609375,-0.8125 C 1.71875,-1.375 1.890625,-2 2.21875,-2.875 2.375,-3.28125 2.421875,-3.390625 2.421875,-3.59375 c 0,-0.4375 -0.3125,-0.8125 -0.8125,-0.8125 -0.953125,0 -1.3125,1.453125 -1.3125,1.53125 0,0.109375 0.09375,0.109375 0.109375,0.109375 0.109375,0 0.109375,-0.03125 0.15625,-0.1875 0.28125,-0.9375 0.671875,-1.234375 1.015625,-1.234375 0.078125,0 0.25,0 0.25,0.3125 0,0.25 -0.109375,0.515625 -0.171875,0.703125 -0.40625,1.0625 -0.578125,1.625 -0.578125,2.09375 0,0.890625 0.625,1.1875 1.21875,1.1875 0.390625,0 0.71875,-0.171875 1,-0.453125 -0.125,0.515625 -0.25,1.015625 -0.640625,1.546875 -0.265625,0.328125 -0.640625,0.625 -1.09375,0.625 -0.140625,0 -0.59375,-0.03125 -0.765625,-0.421875 0.15625,0 0.296875,0 0.421875,-0.125 C 1.328125,1.203125 1.421875,1.0625 1.421875,0.875 1.421875,0.5625 1.15625,0.53125 1.0625,0.53125 0.828125,0.53125 0.5,0.6875 0.5,1.171875 c 0,0.5 0.4375,0.875 1.0625,0.875 1.015625,0 2.046875,-0.90625 2.328125,-2.03125 z m 0,0"
               id="path6588" />
          </g>
        </g>
      </g>
    </g>
    <g
       inkscape:label=""
       transform="matrix(-2.0051586,1.5603975,-9.5421477,-0.20258786,91.241443,173.27779)"
       id="g7451">
      <path
         style="fill:none;fill-opacity:1;stroke:#000000;stroke-width:0.0688751;stroke-linejoin:bevel;stroke-dasharray:none;stroke-dashoffset:0;stroke-opacity:1"
         d="M -0.59195653,0.07900787 C 1.4422343,-0.41664406 -0.31877827,1.9983989 1.4881759,1.5920851 -0.39155712,2.1242947 1.6041146,3.2931978 0.06792112,3.6181224"
         id="path11276"
         sodipodi:nodetypes="ccc" />
    </g>
    <path
       style="fill:none;fill-opacity:1;stroke:#000000;stroke-width:0.264999;stroke-linejoin:bevel;stroke-dasharray:none;stroke-dashoffset:0;stroke-opacity:1"
       d="m 75.347754,170.85679 -1.400335,-0.0348 0.05453,1.53967"
       id="path14924"
       sodipodi:nodetypes="ccc" />
    <path
       style="fill:none;fill-opacity:1;stroke:#000000;stroke-width:0.264999;stroke-linejoin:bevel;stroke-dasharray:none;stroke-dashoffset:0;stroke-opacity:1"
       d="m 45.006709,172.58866 -0.03235,-1.39568 -1.025773,-0.002"
       id="path14924-9"
       sodipodi:nodetypes="ccc" />
    <path
       style="fill:none;fill-opacity:1;stroke:#000000;stroke-width:0.264999;stroke-linejoin:bevel;stroke-dasharray:none;stroke-dashoffset:0;stroke-opacity:1"
       d="m 59.156579,163.13499 1.298585,0.42472 0.49062,-1.46044"
       id="path14924-8"
       sodipodi:nodetypes="ccc" />
    <path
       style="fill:none;fill-opacity:1;stroke:#000000;stroke-width:0.251096;stroke-linejoin:bevel;stroke-dasharray:none;stroke-dashoffset:0;stroke-opacity:1"
       id="path15004"
       sodipodi:type="arc"
       sodipodi:cx="-53.537468"
       sodipodi:cy="162.9473"
       sodipodi:rx="1.376595"
       sodipodi:ry="1.4114591"
       sodipodi:start="0"
       sodipodi:end="0.87964594"
       sodipodi:arc-type="arc"
       d="m -52.160873,162.9473 a 1.376595,1.4114591 0 0 1 -0.49912,1.08754"
       sodipodi:open="true"
       transform="matrix(0.66981502,-0.74252801,0.58153137,0.81352398,0,0)" />
    <path
       style="fill:none;fill-opacity:1;stroke:#000000;stroke-width:0.274926;stroke-linejoin:bevel;stroke-dasharray:none;stroke-dashoffset:0;stroke-opacity:1"
       id="path15004-0"
       sodipodi:type="arc"
       sodipodi:cx="-145.77359"
       sodipodi:cy="106.63989"
       sodipodi:rx="1.5262073"
       sodipodi:ry="1.5262073"
       sodipodi:start="0"
       sodipodi:end="1.2461651"
       sodipodi:arc-type="arc"
       d="m -144.24738,106.63989 a 1.5262073,1.5262073 0 0 1 -1.03941,1.44649"
       sodipodi:open="true"
       transform="rotate(-72.033163)" />
    <g
       inkscape:label=""
       transform="matrix(0.44031327,-0.00697622,0.0071561,0.45166677,61.383613,170.93085)"
       id="g17730">
      <g
         fill="#000000"
         fill-opacity="1"
         id="g29"
         transform="matrix(0.352778,0,0,0.352778,-0.148828,0.0395993)">
        <g
           id="use27"
           transform="translate(0,6.9190001)">
          <path
             d="m 4.53125,-4.984375 c 0,-0.65625 -0.171875,-2.046875 -1.1875,-2.046875 -1.390625,0 -2.921875,2.8125 -2.921875,5.09375 0,0.9375 0.28125,2.046875 1.1875,2.046875 1.40625,0 2.921875,-2.859375 2.921875,-5.09375 z M 1.46875,-3.625 C 1.640625,-4.25 1.84375,-5.046875 2.25,-5.765625 2.515625,-6.25 2.875,-6.8125 3.328125,-6.8125 c 0.484375,0 0.546875,0.640625 0.546875,1.203125 0,0.5 -0.078125,1 -0.3125,1.984375 z m 2,0.328125 C 3.359375,-2.84375 3.15625,-2 2.765625,-1.28125 c -0.34375,0.6875 -0.71875,1.171875 -1.15625,1.171875 -0.328125,0 -0.53125,-0.296875 -0.53125,-1.21875 0,-0.421875 0.0625,-1 0.3125,-1.96875 z m 0,0"
             id="path55" />
        </g>
      </g>
      <g
         clip-path="url(#clipPath9761)"
         id="g35"
         transform="matrix(0.352778,0,0,0.352778,-0.148828,0.0395993)">
        <g
           fill="#000000"
           fill-opacity="1"
           id="g33">
          <g
             id="use31"
             transform="translate(4.677,8.4130001)">
            <path
               d="M 3.515625,-1.265625 H 3.28125 c -0.015625,0.15625 -0.09375,0.5625 -0.1875,0.625 C 3.046875,-0.59375 2.515625,-0.59375 2.40625,-0.59375 H 1.125 c 0.734375,-0.640625 0.984375,-0.84375 1.390625,-1.171875 0.515625,-0.40625 1,-0.84375 1,-1.5 0,-0.84375 -0.734375,-1.359375 -1.625,-1.359375 -0.859375,0 -1.453125,0.609375 -1.453125,1.25 0,0.34375 0.296875,0.390625 0.375,0.390625 0.15625,0 0.359375,-0.125 0.359375,-0.375 0,-0.125 -0.046875,-0.375 -0.40625,-0.375 C 0.984375,-4.21875 1.453125,-4.375 1.78125,-4.375 c 0.703125,0 1.0625,0.546875 1.0625,1.109375 0,0.609375 -0.4375,1.078125 -0.65625,1.328125 L 0.515625,-0.265625 C 0.4375,-0.203125 0.4375,-0.1875 0.4375,0 h 2.875 z m 0,0"
               id="path59" />
          </g>
        </g>
      </g>
      <g
         fill="#000000"
         fill-opacity="1"
         id="g39"
         transform="matrix(0.352778,0,0,0.352778,-0.148828,0.0395993)">
        <g
           id="use37"
           transform="translate(11.36,6.9190001)">
          <path
             d="m 6.5625,-2.296875 c 0.171875,0 0.359375,0 0.359375,-0.203125 0,-0.1875 -0.1875,-0.1875 -0.359375,-0.1875 H 1.171875 c -0.171875,0 -0.34375,0 -0.34375,0.1875 0,0.203125 0.171875,0.203125 0.34375,0.203125 z m 0,0"
             id="path63" />
        </g>
      </g>
      <g
         fill="#000000"
         fill-opacity="1"
         id="g43"
         transform="matrix(0.352778,0,0,0.352778,-0.148828,0.0395993)">
        <g
           id="use41"
           transform="translate(21.323,6.9190001)">
          <path
             d="m 4.53125,-4.984375 c 0,-0.65625 -0.171875,-2.046875 -1.1875,-2.046875 -1.390625,0 -2.921875,2.8125 -2.921875,5.09375 0,0.9375 0.28125,2.046875 1.1875,2.046875 1.40625,0 2.921875,-2.859375 2.921875,-5.09375 z M 1.46875,-3.625 C 1.640625,-4.25 1.84375,-5.046875 2.25,-5.765625 2.515625,-6.25 2.875,-6.8125 3.328125,-6.8125 c 0.484375,0 0.546875,0.640625 0.546875,1.203125 0,0.5 -0.078125,1 -0.3125,1.984375 z m 2,0.328125 C 3.359375,-2.84375 3.15625,-2 2.765625,-1.28125 c -0.34375,0.6875 -0.71875,1.171875 -1.15625,1.171875 -0.328125,0 -0.53125,-0.296875 -0.53125,-1.21875 0,-0.421875 0.0625,-1 0.3125,-1.96875 z m 0,0"
             id="path67" />
        </g>
      </g>
      <g
         clip-path="url(#clipPath7548)"
         id="g49"
         transform="matrix(0.352778,0,0,0.352778,-0.148828,0.0395993)">
        <g
           fill="#000000"
           fill-opacity="1"
           id="g47">
          <g
             id="use45"
             transform="translate(26,8.4130001)">
            <path
               d="m 2.328125,-4.4375 c 0,-0.1875 0,-0.1875 -0.203125,-0.1875 -0.453125,0.4375 -1.078125,0.4375 -1.359375,0.4375 v 0.25 c 0.15625,0 0.625,0 1,-0.1875 v 3.546875 c 0,0.234375 0,0.328125 -0.6875,0.328125 H 0.8125 V 0 c 0.125,0 0.984375,-0.03125 1.234375,-0.03125 0.21875,0 1.09375,0.03125 1.25,0.03125 V -0.25 H 3.03125 c -0.703125,0 -0.703125,-0.09375 -0.703125,-0.328125 z m 0,0"
               id="path71" />
          </g>
        </g>
      </g>
    </g>
    <g
       inkscape:label=""
       transform="matrix(0.5047889,-0.00799777,0.00914141,0.57697139,58.079666,168.95402)"
       id="g17897">
      <g
         fill="#000000"
         fill-opacity="1"
         id="g19"
         transform="matrix(0.352778,0,0,0.352778,-0.148828,0.0395993)">
        <g
           id="use17"
           transform="translate(0,6.9190001)">
          <path
             d="m 4.53125,-4.984375 c 0,-0.65625 -0.171875,-2.046875 -1.1875,-2.046875 -1.390625,0 -2.921875,2.8125 -2.921875,5.09375 0,0.9375 0.28125,2.046875 1.1875,2.046875 1.40625,0 2.921875,-2.859375 2.921875,-5.09375 z M 1.46875,-3.625 C 1.640625,-4.25 1.84375,-5.046875 2.25,-5.765625 2.515625,-6.25 2.875,-6.8125 3.328125,-6.8125 c 0.484375,0 0.546875,0.640625 0.546875,1.203125 0,0.5 -0.078125,1 -0.3125,1.984375 z m 2,0.328125 C 3.359375,-2.84375 3.15625,-2 2.765625,-1.28125 c -0.34375,0.6875 -0.71875,1.171875 -1.15625,1.171875 -0.328125,0 -0.53125,-0.296875 -0.53125,-1.21875 0,-0.421875 0.0625,-1 0.3125,-1.96875 z m 0,0"
             id="path31" />
        </g>
      </g>
      <g
         clip-path="url(#clipPath6525)"
         id="g25"
         transform="matrix(0.352778,0,0,0.352778,-0.148828,0.0395993)">
        <g
           fill="#000000"
           fill-opacity="1"
           id="g23">
          <g
             id="use21"
             transform="translate(4.677,8.4130001)">
            <path
               d="m 2.328125,-4.4375 c 0,-0.1875 0,-0.1875 -0.203125,-0.1875 -0.453125,0.4375 -1.078125,0.4375 -1.359375,0.4375 v 0.25 c 0.15625,0 0.625,0 1,-0.1875 v 3.546875 c 0,0.234375 0,0.328125 -0.6875,0.328125 H 0.8125 V 0 c 0.125,0 0.984375,-0.03125 1.234375,-0.03125 0.21875,0 1.09375,0.03125 1.25,0.03125 V -0.25 H 3.03125 c -0.703125,0 -0.703125,-0.09375 -0.703125,-0.328125 z m 0,0"
               id="path35" />
          </g>
        </g>
      </g>
    </g>
  </g>
</svg>
